M48
;Layer_Color=9474304
;FILE_FORMAT=2:5
INCH,LZ
;TYPE=PLATED
T1F00S00C0.01181
T3F00S00C0.03000
T4F00S00C0.03543
%
T01
X-00831Y-01822
X-0078Y-01823
X-00731Y-01822
X-00567Y-01442
X-00566Y-01399
Y-01358
X-00567Y-01317
X-0064Y-01234
X-00682
X-00725
X-00295Y-01322
X-00056Y-01319
X-0006Y-01409
X-00057Y-01505
X-0010899Y-0165446
X00337Y-01634
X00338Y-01683
X0052Y-01675
X00527Y-0161
X00596Y-0147
X00606Y-01795
X00209Y-01825
X00183Y-00975
X00231Y-00968
X00246Y-00926
X-00211Y-00895
X-00272Y-00904
X00669Y-01468
X00667Y-01796
X00174Y-00751
X00141Y-0078
X00206Y-00717
X-0039Y00454
X-00373Y00927
X-00224Y0085068
X00204Y0077
X00263Y00776
X00313Y00799
X00254Y01199
X00626Y01389
Y015268
X00509Y01649
X00489Y01682
X00246Y01821
X-00159Y01776
X-00207Y0178
X-00185Y01733
X-00555Y01734
X-00579Y01771
X-00529
X-00532Y0169
X-00625Y01589
X-00621Y01818
X007Y01657
X00751
X00803Y01659
X00882Y01802
T03
X0008658Y-0150675
X0015729Y-0143604
X00228Y-0136533
X0029871Y-0129462
X0036942Y-0122391
X0044013Y-011532
X0051084Y-0108249
X0058155Y-0101178
X-0044013Y-006972
X-0036942Y-0062649
X-0029871Y-0055577
X-00228Y-0048507
X-0015729Y-0041435
X-0008658Y-0034364
X-0051084Y-0076791
X-0058155Y-0083862
X0008658Y0034364
X0015729Y0041435
X00228Y0048507
X0029871Y0055577
X0036942Y0062649
X0044013Y006972
X0051084Y0076791
X0058155Y0083862
X-0058155Y0101178
X-0051084Y0108249
X-0044013Y011532
X-0036942Y0122391
X-0029871Y0129462
X-00228Y0136533
X-0015729Y0143604
X-0008658Y0150675
T04
X-0080746Y-0163748
Y-0153748
X-00828Y01386
Y01486
Y01586
Y01686
Y01786
M30
